<?xml version="1.0" encoding="UTF-8"?>
<svg width="71" height="29" viewBox="0 0 71 29" fill="none" id="mal-wordmark">
<mask id="mask0_2084_536" style="mask-type:luminance" maskUnits="userSpaceOnUse" x="0" y="0" width="29" height="29">
<path d="M28.6942 16.1507L27.0911 14.1913L28.5863 12.314C28.6298 12.1517 28.6833 11.9602 28.6649 11.7921C28.6432 11.5822 28.2476 10.7167 28.1406 10.4383C27.9073 9.83115 27.5335 8.68047 27.2291 8.17203C27.158 8.05329 27.0802 7.95294 26.9573 7.88102L23.721 7.38346L24.1985 4.18147C24.1659 4.04433 24.0923 3.94231 23.9987 3.83945C23.5981 3.40125 22.5963 2.70717 22.0778 2.30745C21.8395 2.12347 21.1211 1.49378 20.9246 1.41099C20.7674 1.34493 20.5667 1.33824 20.3969 1.33071L18.0153 2.23135L16.6698 0.246101C16.5268 0.15495 16.3587 0.0462381 16.1923 0.0111158C15.9832 -0.0332052 15.0283 0.0713255 14.7264 0.0863779C14.0699 0.118155 12.8465 0.113138 12.2636 0.242756C12.1265 0.272861 12.0061 0.314673 11.8999 0.408332L10.4205 3.29589L7.48615 1.85755C7.34399 1.84584 7.2219 1.88347 7.09479 1.9395C6.54956 2.18034 5.57115 2.90703 5.02676 3.2708C4.77588 3.43721 3.948 3.91889 3.80751 4.07778C3.69545 4.20489 3.62688 4.39137 3.56751 4.54858L3.6988 7.06401L1.37237 7.71461C1.24107 7.82081 1.08386 7.94541 0.998564 8.09092C0.891524 8.27406 0.696679 9.20229 0.617236 9.49163C0.444969 10.118 0.0628054 11.2661 0.00677696 11.8549C-0.00660296 11.9928 -0.00325819 12.1183 0.0536065 12.2479L2.37586 14.53L0.0845478 16.8431C0.0285194 16.9727 0.0276831 17.099 0.0427355 17.2369C0.10629 17.824 0.503506 18.968 0.684972 19.5918C0.768596 19.8786 0.975149 20.806 1.0847 20.9867C1.1725 21.1305 1.33055 21.2534 1.46352 21.3571L3.92542 22.0111L3.8326 24.3985C3.89448 24.5549 3.96556 24.7406 4.07929 24.866C4.22229 25.0232 5.05686 25.4932 5.30941 25.6571C5.85966 26.0125 6.84643 26.7266 7.39584 26.9608C7.52462 27.016 7.64671 27.0519 7.78804 27.0377L10.7032 25.5609L12.2218 28.4284C12.3297 28.5212 12.4501 28.5605 12.5873 28.589C13.1718 28.7111 14.3952 28.6902 15.0525 28.7127C15.3552 28.7228 16.3111 28.8156 16.5193 28.7679C16.6849 28.7303 16.8521 28.6191 16.9934 28.5262L18.3841 26.4139L20.6528 27.2384C20.8226 27.2292 21.0233 27.2192 21.1788 27.1506C21.3745 27.0653 22.0837 26.4256 22.3195 26.2391C22.8313 25.8327 23.8247 25.1252 24.2194 24.6812C24.3122 24.5767 24.3842 24.4738 24.4151 24.3358L23.8941 21.1405L27.1237 20.6003C27.2458 20.5276 27.3211 20.4264 27.3913 20.3068C27.689 19.795 28.0478 18.6393 28.2727 18.0289C28.3764 17.7487 28.7602 16.8782 28.7786 16.6683C28.7937 16.501 28.7385 16.3095 28.6925 16.1473L28.6942 16.1507ZM25.6678 18.605C25.6059 18.8241 24.9955 20.4431 24.9001 20.4807C24.773 20.4975 24.6944 20.3511 24.6183 20.2717C23.9869 19.6144 23.3765 18.5791 22.7317 17.9971C22.562 17.8432 22.48 17.773 22.2342 17.7838C21.7784 17.8047 20.4388 18.0172 20.0089 18.1459C19.9922 18.151 19.978 18.156 19.9629 18.161C19.8994 18.171 19.8484 18.202 19.8158 18.2563C19.7748 18.3048 19.7614 18.3617 19.7723 18.4244C19.7723 18.4395 19.7723 18.4553 19.7723 18.4721C19.7873 18.9153 20.0148 20.2374 20.1419 20.6697C20.2105 20.903 20.305 20.9574 20.5057 21.0669C21.27 21.4826 22.4591 21.7209 23.292 22.1005C23.3924 22.1457 23.558 22.1725 23.583 22.2962C23.578 22.3974 22.2233 23.4895 22.0326 23.6183C21.5936 23.9144 21.5259 23.8366 21.0492 23.6936C20.3309 23.4778 19.6109 23.1994 18.89 22.9084L18.0555 21.2242C17.7176 20.9106 17.6223 21.1489 17.4274 21.4215C17.2619 21.6531 17.1021 21.8915 16.9433 22.134C16.6288 22.0169 16.3152 21.9049 16.0016 21.8045C15.6814 21.7017 15.4598 21.567 15.3786 22.0186L15.765 24.044C15.3686 24.6929 14.9664 25.3326 14.5273 25.9213C14.2321 26.3177 14.2255 26.4197 13.6944 26.4432C13.4645 26.4532 11.7176 26.3796 11.6523 26.301C11.5971 26.1864 11.7142 26.0677 11.7669 25.9724C12.2043 25.1763 13.0129 24.2823 13.3733 23.4971C13.4687 23.2897 13.5113 23.191 13.4243 22.9635C13.2629 22.5421 12.645 21.3479 12.3882 20.9842C12.3782 20.9699 12.369 20.9574 12.359 20.9457C12.3289 20.8888 12.2837 20.8512 12.2218 20.837C12.1633 20.8136 12.1039 20.8186 12.0462 20.8478C12.0311 20.852 12.0161 20.857 12.0002 20.8629C11.5779 21.0143 10.3762 21.6364 9.99824 21.889C9.79419 22.0253 9.77161 22.1315 9.72813 22.3548C9.56422 23.201 9.70221 24.3927 9.59433 25.2925C9.58179 25.4012 9.60771 25.5651 9.49565 25.627C9.39698 25.6537 7.92686 24.718 7.74455 24.5783C7.32392 24.2564 7.37828 24.1694 7.36824 23.6777C7.35403 22.9359 7.39919 22.1733 7.45689 21.4065L8.81997 20.1019C9.01732 19.6871 8.75808 19.6712 8.43613 19.5726C8.16268 19.4889 7.88337 19.412 7.60072 19.3384C7.61745 19.0064 7.62748 18.6778 7.62748 18.3517C7.62748 18.0255 7.68936 17.7696 7.23026 17.8323L5.40056 18.8216C4.65296 18.6502 3.91372 18.4696 3.21127 18.2396C2.73879 18.0857 2.63844 18.11 2.45196 17.6183C2.37084 17.405 1.90255 15.7409 1.95774 15.6556C2.05056 15.5678 2.20192 15.6414 2.3098 15.6614C3.21127 15.827 4.3218 16.3095 5.18899 16.4057C5.41812 16.4308 5.52683 16.4408 5.71917 16.2886C6.07541 16.0077 7.03291 15.0568 7.30469 14.7031C7.31472 14.6897 7.32392 14.6764 7.33229 14.6638C7.37744 14.6187 7.40002 14.5643 7.395 14.5016C7.39919 14.438 7.37661 14.3845 7.33061 14.3402C7.32141 14.3276 7.31305 14.3143 7.30218 14.3009C7.02622 13.9513 6.05618 13.0139 5.69575 12.7371C5.50091 12.5874 5.3922 12.5991 5.16474 12.6267C4.29922 12.7338 3.19538 13.2322 2.29558 13.4086C2.18687 13.4295 2.03802 13.5048 1.94352 13.4186C1.88749 13.3333 2.33405 11.6625 2.41182 11.4493C2.59161 10.9551 2.6928 10.9785 3.16277 10.8179C3.8719 10.5754 4.62118 10.3822 5.37714 10.1991L7.05465 11.0763C7.51459 11.1332 7.4502 10.8857 7.44602 10.552C7.44267 10.2685 7.43013 9.98251 7.4134 9.69484C7.73786 9.60703 8.05815 9.51588 8.37174 9.4147C8.69202 9.31184 8.95126 9.2926 8.74889 8.88117L7.23194 7.46708C7.16671 6.71111 7.11152 5.96017 7.1157 5.22929C7.11904 4.73757 7.06385 4.65061 7.47946 4.32363C7.65926 4.18231 9.11683 3.22732 9.21635 3.2524C9.32924 3.31261 9.30583 3.47735 9.32004 3.58523C9.43879 4.48336 9.31753 5.67584 9.49314 6.52045C9.53914 6.74289 9.56339 6.84909 9.76994 6.98206C10.1513 7.22959 11.3613 7.83586 11.7853 7.98137C11.802 7.98639 11.8162 7.99141 11.8313 7.99559C11.889 8.02402 11.9484 8.02904 12.0069 8.00479C12.0688 7.98973 12.1139 7.95127 12.1424 7.89356C12.1524 7.88186 12.1616 7.86848 12.1716 7.85426C12.4233 7.48715 13.0254 6.28463 13.181 5.86149C13.2646 5.63236 13.2203 5.53368 13.1233 5.32796C12.752 4.54775 11.9325 3.66384 11.4834 2.87358C11.4291 2.77825 11.3111 2.66118 11.3647 2.54578C11.4291 2.46717 13.1751 2.37016 13.4051 2.37685C13.9361 2.39274 13.9445 2.49476 14.2447 2.88696C14.6971 3.47903 15.1144 4.1221 15.5241 4.77604L15.198 6.62331C15.285 7.07321 15.5041 6.93523 15.8227 6.82819C16.0936 6.73704 16.3662 6.63752 16.6372 6.53299C16.8212 6.81063 17.0085 7.08324 17.2025 7.34666C17.4007 7.61593 17.4994 7.85426 17.8339 7.53565L18.7261 5.6725C19.4328 5.3773 20.1385 5.09382 20.8443 4.87221C21.3185 4.72252 21.3854 4.64392 21.8286 4.93409C22.0201 5.05953 23.3899 6.1341 23.3966 6.23529C23.3731 6.35989 23.2076 6.38832 23.1081 6.43515C22.281 6.82484 21.0944 7.07906 20.3359 7.50471C20.136 7.61677 20.0424 7.67196 19.9772 7.90694C19.8567 8.34179 19.646 9.6664 19.6376 10.1096C19.6376 10.1263 19.6376 10.1422 19.6376 10.1573C19.6276 10.2208 19.6418 10.2777 19.6836 10.3245C19.7171 10.378 19.7681 10.4082 19.8325 10.4182C19.8475 10.4232 19.8626 10.4282 19.8785 10.4332C20.3091 10.5562 21.6522 10.7502 22.1079 10.7661C22.3538 10.7744 22.4357 10.7025 22.603 10.5461C23.2393 9.95658 23.8364 8.91295 24.4578 8.2473C24.533 8.16702 24.6091 8.01984 24.7362 8.03405C24.8324 8.07085 25.4646 9.68146 25.529 9.89888C25.6778 10.4031 25.5817 10.4433 25.2973 10.8463C24.8675 11.4543 24.3766 12.0455 23.8749 12.6334L21.995 12.8977C21.5886 13.1184 21.7893 13.2815 21.9908 13.5491C22.1623 13.7757 22.3421 14.0007 22.5269 14.2239C22.317 14.4832 22.1121 14.7433 21.9181 15.0067C21.7199 15.2759 21.5217 15.4424 21.9315 15.6573L23.9995 15.9198C24.5021 16.4927 24.993 17.0688 25.4253 17.6626C25.7163 18.0623 25.8116 18.0999 25.6695 18.6059V18.6042L25.6678 18.605Z" fill="white"/>
</mask>
<g mask="url(#mask0_2084_536)">
<mask id="mask1_2084_536" style="mask-type:luminance" maskUnits="userSpaceOnUse" x="-1" y="-1" width="31" height="31">
<path d="M29.1999 -0.417114H-0.418213V29.201H29.1999V-0.417114Z" fill="white"/>
</mask>
<g mask="url(#mask1_2084_536)">
<rect x="-0.432495" y="-0.439453" width="29.6633" height="29.6633" fill="black"/>
</g>
</g>
<path d="M48.7521 6.117V22.7074H45.9924V10.6055L40.8796 18.4653H40.5452L35.4324 10.5817V22.7074H32.6727V6.117H35.6484L40.7161 13.9302L45.7984 6.117H48.7533H48.7521ZM61.4481 11.2528H64.0405V22.7074H61.4481V20.8089C60.4717 22.0738 59.0717 22.7074 57.2482 22.7074C55.6005 22.7074 54.192 22.1374 53.0239 20.9997C51.8559 19.8608 51.2725 18.4732 51.2725 16.8359C51.2725 15.1985 51.8559 13.7917 53.0239 12.6607C54.192 11.5298 55.6005 10.9643 57.2482 10.9643C59.0717 10.9643 60.4717 11.59 61.4481 12.8402V11.255V11.2528ZM54.9438 19.3907C55.664 20.0686 56.5672 20.407 57.6559 20.407C58.7446 20.407 59.6478 20.0686 60.3679 19.3907C61.088 18.714 61.4481 17.8612 61.4481 16.8336C61.4481 15.806 61.088 14.9544 60.3679 14.2765C59.6478 13.5998 58.7434 13.2603 57.6559 13.2603C56.5684 13.2603 55.664 13.5986 54.9438 14.2765C54.2237 14.9544 53.8637 15.806 53.8637 16.8336C53.8637 17.8612 54.2237 18.7128 54.9438 19.3907ZM67.065 22.7074H69.7392V8.56168H71V6.07385H67.065V22.7074Z" fill="#121212"/>
</svg>